<?xml version="1.0" ?>
<!-- Uploaded to: SVG Repo, www.svgrepo.com, Generator: SVG Repo Mixer Tools -->
<svg width="800px" height="800px" viewBox="0 0 256 256" data-name="Layer 1" id="Layer_1" xmlns="http://www.w3.org/2000/svg">
<defs>
<style>.cls-1{fill:#84d0f7;}.cls-2{fill:#2d2d2d;}.cls-3{fill:#aa392d;}.cls-4{fill:#7c211a;}.cls-5{fill:#843f2c;}.cls-6{opacity:0.2;}.cls-7{opacity:0.3;}</style>
</defs>
<g data-name="Female 2" id="Female_2">
<path class="cls-1" d="M249.29,127.89A120.46,120.46,0,0,1,221,205.64a123.66,123.66,0,0,1-9.21,9.8H45.57a101.27,101.27,0,0,1-9-8.87l-.82-1C28.85,197.34,6.34,168,7.5,127.89,9.12,72.31,55.84,7,128.4,7A120.89,120.89,0,0,1,249.29,127.89Z" id="Wallpaper"/>
<path class="cls-2" d="M197.92,199.94c-4.94,15.93-37.38,24.4-69.09,24.58-31.71-.18-64.16-8.65-69.09-24.58-2.94-9.5,6.23-14,10.1-38.44,3.61-22.78-4.11-27.32-2.4-53.23,1.1-16.85,2.2-33.42,14-47.8,16.82-20.6,43.28-21.15,46.69-21.19,3,0,30.61.08,48.19,21.19,15.69,18.84,13.65,43.35,13.95,47.8,1.71,25.91-6,30.45-2.4,53.23C191.68,185.91,200.86,190.44,197.92,199.94Z" id="Hairs"/>
<path class="cls-3" d="M221,205.63a117.29,117.29,0,0,1-9.23,9.82,121.86,121.86,0,0,1-20.69,15.84,120.16,120.16,0,0,1-62.67,17.49c-25.72,0-47.24-8.94-63-18.62a143.47,143.47,0,0,1-19.84-14.71,104.73,104.73,0,0,1-9-8.88c-.24-.26-.5-.59-.82-1a111.67,111.67,0,0,1,25.09-18.82,131.17,131.17,0,0,1,27.48-11.32q19.91,17.63,39.84,35.23l40.22-35.23c.28.09.58.15.87.24a.71.71,0,0,0,.26.09h0a132.48,132.48,0,0,1,26.27,10.94A113,113,0,0,1,221,205.63Z" id="Sweater"/>
<path class="cls-4" d="M168.41,175.47,128.19,210.7q-19.93-17.62-39.84-35.23l1-.28.85-.24c.24-.07.52-.13.8-.22H91c1-.26,2.22-.59,3.54-.89q16.82,14.4,33.6,28.81,17-14.43,34-28.81C165.14,174.54,167.45,175.19,168.41,175.47Z" id="Neckband"/>
<path class="cls-5" d="M162.16,173.84q-17,14.4-34,28.81-16.8-14.43-33.6-28.81c1.44-.35,2.94-.67,4.46-1s2.81-.55,4.14-.76a33.83,33.83,0,0,0,1.65-5.14c.24-1,.42-1.87.55-2.74a37.75,37.75,0,0,0,8.74,5.51c.51.21,1.07.47,1.75.76a31.13,31.13,0,0,0,24.32,0c.9-.37,1.68-.72,2.31-1a39.4,39.4,0,0,0,8.64-5.52c.28,1.28.63,2.63,1,4s.92,2.85,1.4,4.14a.12.12,0,0,1,.08,0c1.27.22,2.44.43,3.49.65h0C158.9,173.08,160.55,173.45,162.16,173.84Z" id="Neck"/>
<path class="cls-6" d="M169.56,175.8c-.83.93-1.68,1.85-2.55,2.72a58,58,0,0,1-6.24,5.42,42.6,42.6,0,0,1-9.42,5.33,33.82,33.82,0,0,1-6.53,1.93,29.79,29.79,0,0,1-6,.53,31.74,31.74,0,0,1-11.51-2.4l-.65-.26a40.7,40.7,0,0,1-8.23-4.7,59.13,59.13,0,0,1-12.57-12.73c-.57-.76-1.14-1.54-1.68-2.35.11-.35.22-.69.33-1.06.39-1.46.67-2.81.87-4,.58.48,1.19.94,1.78,1.37a44.41,44.41,0,0,0,5.07,3.18c.18.08.35.19.52.28l.63.33c.24.11.48.21.74.35l.44.19.37.18.46.19.45.18a.84.84,0,0,0,.2.08c.17.09.35.15.52.22s.46.15.68.24l0,0,.7.24a.67.67,0,0,1,.17.07l.52.15.74.24a1.8,1.8,0,0,1,.35.08l.72.2a28.78,28.78,0,0,0,4.48.78,2.61,2.61,0,0,0,.48,0,1.83,1.83,0,0,0,.33,0,5.68,5.68,0,0,0,.61,0c.17,0,.37,0,.54.05h1.2a31.4,31.4,0,0,0,9.64-1.59l.06,0,.35-.14c.65-.19,1.28-.45,1.94-.69l.17-.09.83-.35.22-.08a45.51,45.51,0,0,0,8.2-4.83l1.61-1.24c.28,1.34.67,2.8,1.13,4.33.41,1.37.85,2.65,1.31,3.85l1.08.19,1.09.2,1.07.19c.28.07.54.11.8.18a3.33,3.33,0,0,1,.53.11c1.35.28,2.69.56,4,.89,2.11.5,4.2,1,6.25,1.63Z" id="HairsShadow"/>
<path class="cls-5" d="M186,120c-.16,5.14-3.44,10.36-7.12,12.28a7.65,7.65,0,0,1-1.56.59.53.53,0,0,1-.12,0,5,5,0,0,1-2,.06,5,5,0,0,1-2-.87,2.92,2.92,0,0,1-.28-.21,6.78,6.78,0,0,1-1.11-1.1c-2.66-3.19-3.74-9.19-2-14a14.43,14.43,0,0,1,3.21-5,8.81,8.81,0,0,1,4.38-2.57,5.81,5.81,0,0,1,2.35,0C184.08,110.09,186.1,115.7,186,120Z" id="RightEar"/>
<path class="cls-7" d="M186,120c-.15,5.16-3.44,10.36-7.12,12.3a9,9,0,0,1-1.56.59s-.07,0-.14,0a5.28,5.28,0,0,1-2,.06,5.09,5.09,0,0,1-2-.87l-.29-.21a6.56,6.56,0,0,1-1.08-1.09c-2.68-3.2-3.75-9.21-2-14a14.4,14.4,0,0,1,3.2-5,10.19,10.19,0,0,1,3.09-2.18,7.26,7.26,0,0,1,1.28-.39,5.81,5.81,0,0,1,2.35,0,1.28,1.28,0,0,1,.35.09C184.21,110.39,186.1,115.83,186,120Z" id="RightEarShadow"/>
<path class="cls-5" d="M85,130.79a6.84,6.84,0,0,1-1.39,1.31,5.07,5.07,0,0,1-2,.87,4.93,4.93,0,0,1-2-.06l-.12,0a6.78,6.78,0,0,1-1.56-.6c-3.68-1.91-7-7.13-7.13-12.27-.13-4.31,1.89-9.92,6.26-10.8,2.49-.5,4.87.71,6.74,2.59a14.4,14.4,0,0,1,3.2,5C88.71,121.6,87.62,127.6,85,130.79Z" id="LeftEar"/>
<path class="cls-5" d="M177.35,109.17v.06c0,.39,0,.81,0,1.22a78.57,78.57,0,0,1-4.49,21.44c-.28.8-.58,1.61-.89,2.41-4.7,12-12.05,22.57-20.8,29.6l-1.61,1.24a45.51,45.51,0,0,1-8.2,4.83l-.22.08-.83.35-.17.09c-.66.24-1.29.5-1.94.69l-.35.14-.06,0a31.4,31.4,0,0,1-9.64,1.59h-1.2c-.17,0-.37,0-.54-.05a5.68,5.68,0,0,1-.61,0,1.83,1.83,0,0,1-.33,0,2.61,2.61,0,0,1-.48,0,28.78,28.78,0,0,1-4.48-.78l-.72-.2a1.8,1.8,0,0,0-.35-.08l-.74-.24-.52-.15a.67.67,0,0,0-.17-.07l-.7-.24,0,0c-.22-.09-.44-.15-.68-.24s-.35-.13-.52-.22a.84.84,0,0,1-.2-.08l-.45-.18-.46-.19-.37-.18-.44-.19c-.26-.14-.5-.24-.74-.35l-.63-.33c-.17-.09-.34-.2-.52-.28a44.41,44.41,0,0,1-5.07-3.18c-.59-.43-1.2-.89-1.78-1.37-.76-.61-1.5-1.24-2.24-1.89s-1.46-1.33-2.16-2.05-1.43-1.44-2.09-2.17-1.37-1.53-2-2.31a80.65,80.65,0,0,1-17.3-43c-.11-1-.17-2-.22-3.07a69.35,69.35,0,0,1,.33-10.79c.17-1.46.37-2.89.63-4.33.33-1.74.72-3.5,1.22-5.29a72.05,72.05,0,0,1,4.61-12.49c4.2-8.81,10.27-17.1,17.84-23,6.92-5.37,15.08-8.77,24.25-8.79,14.77-.07,27,8.62,35.55,20.3a71.94,71.94,0,0,1,8.58,15.37c.56,1.37,1.06,2.74,1.54,4.13a69.72,69.72,0,0,1,2.55,9.77c.24,1.39.45,2.81.61,4.22A66,66,0,0,1,177.35,109.17Z" id="Head"/>
<path class="cls-6" d="M177.42,109.21c-.09,1.42-.2,2.57-.33,3.79-.2,1.91-.31,2.85-.35,2.91-1.2,2-10.7.31-24.59-7.11-10.81-5.79-12-8.08-22.48-14.45-15.62-9.49-23.43-14.3-32.07-12.91-13.6,2.18-20.67,17-23.26,16.11,2.91.63,7.5-14.71,20-18.85s27.48,4.81,42.84,14c4.84,2.9,11.17,7.25,21.66,12,14.47,6.59,17.4,5.22,18.49,4.52C177.39,109.23,177.39,109.21,177.42,109.21Z" data-name="HairsShadow" id="HairsShadow-2"/>
<path class="cls-2" d="M177.42,109.21s0,0,0,0c-1.09.7-4,2.07-18.49-4.52-10.49-4.79-16.82-9.14-21.66-12-15.36-9.16-30.29-18.08-42.84-14s-17.13,19.48-20,18.85l-.18-.07c-2.15-1-.76-10.29,2.42-18.3,4.79-12,16.78-29.09,38-34.64,4.53-1.18,22-5.46,39,4.33,16.82,9.68,21.78,26.05,24.07,33.68C178.46,85.23,184.27,104.62,177.42,109.21Z" data-name="Hairs" id="Hairs-2"/>
</g>
</svg>