<?xml version="1.0" ?>
<!-- Uploaded to: SVG Repo, www.svgrepo.com, Generator: SVG Repo Mixer Tools -->
<svg width="800px" height="800px" viewBox="0 0 256 256" data-name="Layer 1" id="Layer_1" xmlns="http://www.w3.org/2000/svg">
<defs>
<style>.cls-1{fill:#84d0f7;}.cls-2{fill:#aa392d;}.cls-3{fill:#7c211a;}.cls-4{fill:#843f2c;}.cls-5{fill:#2d2d2d;}.cls-6{opacity:0.2;}.cls-7{opacity:0.3;}</style>
</defs>
<g data-name="Male 1" id="Male_1">
<path class="cls-1" d="M249.43,128.3a120.85,120.85,0,0,1-28.4,78,122.72,122.72,0,0,1-9.24,9.83H45a100.31,100.31,0,0,1-9-8.89l-.82-1c-7-8.3-29.55-37.73-28.38-78C8.45,72.53,55.34,7,128.13,7A121.3,121.3,0,0,1,249.43,128.3Z" id="Wallpaper"/>
<path class="cls-2" d="M221,206.32a121.53,121.53,0,0,1-92.91,43.29c-39.44,0-69-21-83.1-33.46a102.69,102.69,0,0,1-9-8.9c-.25-.29-.51-.59-.82-1C48.75,192.64,67,182,88,176c5.85,14.61,21.63,25.07,40.15,25.07,17.22,0,32.05-9,38.78-22,.51-1,1-2,1.4-3.07l1.14.33C189.93,182.44,207.74,192.9,221,206.32Z" id="Sweater"/>
<path class="cls-3" d="M168.28,176c-.42,1-.89,2.05-1.4,3.07-6.73,13-21.56,22-38.78,22-18.52,0-34.3-10.46-40.15-25.07.44-.13.89-.24,1.33-.38.2,0,.39-.11.61-.17l.71-.18.22-.06s1.75-.47,3.38-.84a37.71,37.71,0,0,0,67.83,0A27.45,27.45,0,0,1,168.28,176Z" id="Neckband"/>
<path class="cls-4" d="M162,174.41a37.7,37.7,0,0,1-67.83,0c1.35-.33,2.69-.64,4.06-.91.33-.06.68-.13,1-.22.17,0,.35-.07.5-.09l.86-.17,1.2-.2.9-.18h.09c.35-.86.68-1.79,1-2.8.11-.33.22-.71.33-1.06a40.22,40.22,0,0,0,.89-4,40.91,40.91,0,0,0,6.86,4.57c.18.09.35.17.53.28l.64.31c.22.11.49.22.73.36a4.48,4.48,0,0,1,.44.2l.38.17.46.2.44.18a1.76,1.76,0,0,1,.2.09c.18.06.33.13.53.19l.66.27H117c.22.09.44.18.7.26a1,1,0,0,0,.16.05l.51.17c.26.07.5.16.77.23l.35.08.71.2a37.43,37.43,0,0,0,4.5.8l.47,0,.33,0c.19,0,.42,0,.61.05l.56,0c.22,0,.42,0,.64,0h.55a30.29,30.29,0,0,0,9.67-1.61.07.07,0,0,0,.06,0,2.15,2.15,0,0,0,.36-.11c.79-.27,1.5-.55,2.11-.8l.84-.35.22-.09a38.31,38.31,0,0,0,9.83-6.09c.31,1.37.68,2.83,1.14,4.35.42,1.37.86,2.65,1.33,3.86.35.07.73.11,1.08.2s.73.13,1.08.2.73.13,1.08.2.55.11.8.15.37.07.55.11C159.34,173.79,160.68,174.08,162,174.41Z" id="Neck"/>
<path class="cls-5" d="M102.72,54.73a64.91,64.91,0,0,0-17,22.34A72.07,72.07,0,0,0,79.87,94.9a66.8,66.8,0,0,0-1,14.68,5.5,5.5,0,0,0-2.18,0c-.67-2.47-1.26-5.93-2.08-10.44-1-5.82-1.54-8.74-1.39-12a36.72,36.72,0,0,1,6.58-18.25C86.12,60.16,96.63,55.54,102.72,54.73Z" id="Hairs"/>
<path class="cls-5" d="M181.56,99.09c-.79,4.51-1.41,8-2.07,10.44-.71,2.7-1.48,4.26-2.58,4.79h0c.18-1.58.31-3.15.38-4.74a66.69,66.69,0,0,0-.93-14.68,65.33,65.33,0,0,0-2.56-9.8l.4-.29.44-.33a1.15,1.15,0,0,0,.24-.2,24.21,24.21,0,0,0,4.62-4.74,4.53,4.53,0,0,0,.84-3.53A35.42,35.42,0,0,1,183,87.13v.05C183.13,90.38,182.6,93.29,181.56,99.09Z" data-name="Hairs" id="Hairs-2"/>
<path class="cls-6" d="M169.42,176.37c-.81.95-1.67,1.86-2.54,2.74a59.62,59.62,0,0,1-6.26,5.43,42.94,42.94,0,0,1-9.45,5.36,35.39,35.39,0,0,1-6.56,1.94,28.48,28.48,0,0,1-6,.51A31.82,31.82,0,0,1,127,190a6.22,6.22,0,0,1-.64-.29,40.3,40.3,0,0,1-8.25-4.7A59,59,0,0,1,105.5,172.2c-.57-.77-1.13-1.57-1.68-2.36.11-.33.22-.71.33-1.06a40.22,40.22,0,0,0,.89-4c.57.46,1.19.93,1.78,1.37a47.73,47.73,0,0,0,5.08,3.2c.18.09.35.17.53.28l.64.31c.22.11.49.22.73.36a4.48,4.48,0,0,1,.44.2l.38.17.46.2.44.18a1.76,1.76,0,0,1,.2.09l.53.19.66.27H117l.7.26a1,1,0,0,0,.16.05l.51.17c.26.07.5.16.77.23l.35.08.71.2a31.18,31.18,0,0,0,4.5.8l.47,0,.33,0c.19,0,.42,0,.61.05l.56,0c.22,0,.42,0,.64,0h.55a31.52,31.52,0,0,0,9.67-1.61.07.07,0,0,0,.06,0,2.15,2.15,0,0,0,.36-.11c.66-.22,1.3-.47,1.94-.73l.2-.07.81-.35.22-.09a45,45,0,0,0,8.21-4.85c.56-.4,1.09-.82,1.62-1.24.31,1.37.68,2.83,1.14,4.35.42,1.37.86,2.65,1.33,3.86.35.07.73.11,1.08.2s.73.13,1.08.2.73.13,1.08.2.55.11.8.15.37.07.55.11c1.35.29,2.69.58,4,.91,2.1.48,4.19,1,6.25,1.63Z" id="NeckShadow"/>
<path class="cls-4" d="M185.9,120.39c-.15,5.17-3.45,10.4-7.14,12.32a7,7,0,0,1-1.57.6l-.12,0a5,5,0,0,1-2,.06,4.9,4.9,0,0,1-2-.88,2.83,2.83,0,0,1-.28-.2,7.82,7.82,0,0,1-1.12-1.11c-2.66-3.2-3.75-9.22-2-14a14.63,14.63,0,0,1,3.22-5,9,9,0,0,1,4.4-2.58,6,6,0,0,1,2.35,0C184,110.44,186,116.07,185.9,120.39Z" id="RightEar"/>
<path class="cls-7" d="M185.9,120.39c-.15,5.17-3.45,10.4-7.15,12.32a6.78,6.78,0,0,1-1.56.6l-.12,0a5,5,0,0,1-2,.06,4.9,4.9,0,0,1-2-.88,2.83,2.83,0,0,1-.28-.2,7.34,7.34,0,0,1-1.12-1.11c-2.66-3.2-3.75-9.22-2-14a14.75,14.75,0,0,1,3.21-5,9,9,0,0,1,4.41-2.58,6,6,0,0,1,2.35,0C184,110.44,186,116.07,185.9,120.39Z" id="RightEarShadow"/>
<path class="cls-4" d="M84.55,131.21a7,7,0,0,1-1.23,1.21,1.53,1.53,0,0,1-.16.11,4.86,4.86,0,0,1-4.06.8.3.3,0,0,1-.13,0,7.61,7.61,0,0,1-1.55-.6c-3.7-1.92-7-7.15-7.15-12.32-.13-4.32,1.88-10,6.27-10.83a.3.3,0,0,1,.16,0,5.5,5.5,0,0,1,2.18,0,8.69,8.69,0,0,1,4.42,2.58,8.34,8.34,0,0,1,.7.8,14.23,14.23,0,0,1,2.52,4.21C88.31,122,87.22,128,84.55,131.21Z" id="LeftEar"/>
<path class="cls-4" d="M177.26,109.58c-.07,1.59-.2,3.16-.38,4.74a78.9,78.9,0,0,1-4.15,18c-4.63,13-12.42,24.57-21.8,32.12-.53.42-1.06.84-1.62,1.24a45,45,0,0,1-8.21,4.85l-.22.09-.81.35-.2.07c-.64.26-1.28.51-1.94.73a2.15,2.15,0,0,1-.36.11.07.07,0,0,1-.06,0,31.52,31.52,0,0,1-9.67,1.61h-.55c-.22,0-.42,0-.64,0l-.56,0c-.19,0-.42,0-.61-.05l-.33,0-.47,0a31.18,31.18,0,0,1-4.5-.8l-.71-.2-.35-.08c-.27-.07-.51-.16-.77-.23l-.51-.17a1,1,0,0,1-.16-.05l-.7-.26h-.07l-.66-.27-.53-.19a1.76,1.76,0,0,0-.2-.09l-.44-.18-.46-.2-.38-.17a4.48,4.48,0,0,0-.44-.2c-.24-.14-.51-.25-.73-.36l-.64-.31c-.18-.11-.35-.19-.53-.28a47.73,47.73,0,0,1-5.08-3.2c-.59-.44-1.21-.91-1.78-1.37a58.49,58.49,0,0,1-8.55-8.48,76.88,76.88,0,0,1-13.17-23.84c-.16-.35-.27-.72-.4-1.1a80.25,80.25,0,0,1-3.69-17c0-.37-.08-.77-.11-1.15-.08-1-.17-2-.22-3.06,0-.18,0-.33,0-.51a66.8,66.8,0,0,1,1-14.68,72.07,72.07,0,0,1,5.85-17.83,64.91,64.91,0,0,1,17-22.34c.31-.27.62-.51.93-.75A39.49,39.49,0,0,1,128,45.15c9.69,0,18.3,3.68,25.49,9.56a57.93,57.93,0,0,1,10.18,10.83A73.19,73.19,0,0,1,172.23,81c.57,1.37,1.08,2.76,1.54,4.15a65.33,65.33,0,0,1,2.56,9.8A66.69,66.69,0,0,1,177.26,109.58Z" id="Head"/>
<path class="cls-6" d="M183,87.13v.05a23.51,23.51,0,0,1-3.17,3c-.09.09-.51.4-1.06.82-.91.64-1.84,1.28-2.79,1.9a67.33,67.33,0,0,1-70.16,1.94,68.63,68.63,0,0,1-6.07-4c-.67-.48-1.31-1-2-1.48a63.87,63.87,0,0,1-4.92-4.26c-.73-.7-1.46-1.43-2.16-2.18-.93-1-1.83-2-2.7-3a4.4,4.4,0,0,1-.81-1.44,62.45,62.45,0,0,0,5.67,5v0a69.17,69.17,0,0,0,8,5.41,67.37,67.37,0,0,0,62,2.65,67.84,67.84,0,0,0,11-6.49l.4-.29.44-.33a1.15,1.15,0,0,0,.24-.2,24.21,24.21,0,0,0,4.62-4.74,4.53,4.53,0,0,0,.84-3.53A35.42,35.42,0,0,1,183,87.13Z" id="HairsShadow"/>
<path class="cls-5" d="M179.47,79.54a24.21,24.21,0,0,1-4.62,4.74,1.15,1.15,0,0,1-.24.2l-.44.33-.4.29a67.84,67.84,0,0,1-11,6.49,67.37,67.37,0,0,1-62-2.65,69.17,69.17,0,0,1-8-5.41v0a62.45,62.45,0,0,1-5.67-5c-.49-.48-1-1-1.44-1.45-.92-.95-1.81-1.95-2.67-3a4.59,4.59,0,0,1,0-5.88A66.52,66.52,0,0,1,95.46,56.83q1.89-1.36,3.9-2.59a66.93,66.93,0,0,1,35-9.82c3.16,0,11.87,0,19.82,3,8.52,3.18,14.68,9.23,18.94,15.14A62.67,62.67,0,0,1,180,75.06a4,4,0,0,1,.27,1A4.53,4.53,0,0,1,179.47,79.54Z" data-name="Hairs" id="Hairs-3"/>
</g>
</svg>